<?xml version="1.0" encoding="utf-8"?>
<!-- Generator: Adobe Illustrator 26.1.0, SVG Export Plug-In . SVG Version: 6.00 Build 0)  -->
<svg version="1.1" id="Layer_1" xmlns="http://www.w3.org/2000/svg" xmlns:xlink="http://www.w3.org/1999/xlink" x="0px" y="0px"
	 viewBox="0 0 527.9 384.77" style="enable-background:new 0 0 527.9 384.77;" xml:space="preserve">
<style type="text/css">
	.st0{fill:#25CC86;}
</style>
<g>
	<g>
		<path class="st0" d="M351.6,370.65c0.49,11.46-1.34,10.28,10.64,10.31c6.17,0.01,6.51-0.32,6.44-6.67
			c-0.22-19.36-0.48-38.71-0.75-58.07c-0.07-4.74-0.11-9.49-0.36-14.22c-0.53-10.18,0.31-10-11.27-10.08
			c-4.16-0.03-6.66,1.53-8.66,5.12c-7.22,12.99-14.7,25.83-22.02,38.76c-1.45,2.56-2.36,2.7-3.9-0.02
			c-6.55-11.65-13.31-23.18-19.87-34.82c-6.01-10.64-4.29-8.83-15.62-8.94c-5.56-0.06-6.32,0.81-6.45,6.21
			c-0.45,18.47-0.96,36.95-1.36,55.42c-0.16,7.49-0.02,14.99-0.22,22.48c-0.1,3.59,1.4,5.03,4.89,4.86
			c2.37-0.12,4.76-0.16,7.12,0.03c3.71,0.28,4.93-1.3,5.15-4.98c0.77-12.73,0.42-25.47,0.82-38.2c0.14-4.43,0.44-8.86,0.66-13.29
			c0.3-0.04,0.6-0.07,0.91-0.11c0.43,0.59,0.92,1.14,1.29,1.77c5.78,9.93,11.52,19.88,17.31,29.81c1.67,2.86,2.84,6.57,6.93,6.58
			c4.11,0.01,5.26-3.76,6.94-6.58c5.84-9.75,11.56-19.57,17.4-29.32c0.58-0.97,0.93-2.83,2.41-2.42c1.41,0.39,0.89,2.14,0.91,3.31
			C351.2,341.93,350.99,356.29,351.6,370.65z"/>
		<path class="st0" d="M386.69,199.74c11.97-18.86,10.47-42.13-3.73-59.38c-1.9-2.31-2.94-4.69-3.12-7.76
			c-1.08-18.99-14.44-34.63-33.06-38.66c-3.71-0.8-6.13-2.45-8.05-5.81c-5.3-9.2-13.21-15.67-23.08-19.39
			c-13.96-5.25-27.49-3.43-40.47,3.55c-4.32,2.32-4.99,2-5.67-2.81c-3.17-22.33,14.64-40.19,28.15-46.69
			c0.77-0.37,1.74-0.89,2.45-0.16c0.77,0.8-0.04,1.63-0.45,2.34c-2.72,4.68-6.11,8.82-10.09,12.48c-4.54,4.17-8.45,8.86-11.23,14.4
			c-0.81,1.61-1.78,3.45,1.65,3.17c23.38-1.92,42.81-23.43,42.4-46.96c-0.05-2.81-1.11-4.1-3.97-4.19
			c-5.54-0.18-10.99,0.4-16.36,1.66c-15.93,3.73-27.48,12.55-33.17,28.36c-1.55,4.3-2.29,8.83-3.78,13.56
			c-1.63-1.4-1.4-2.63-1.65-3.69c-2.98-13.04-8.09-24.73-20.2-31.99c-9.37-5.61-19.58-8.01-30.44-7.88
			c-5.22,0.06-5.91,0.78-5.63,5.87c1.32,23.81,17.79,41.73,41.5,45.12c0.96,0.14,2.11,0.7,2.83-0.21c0.84-1.07-0.08-2.15-0.53-3.12
			c-2.49-5.42-6.07-10.02-10.72-13.78c-3.92-3.18-6.98-7.13-9.82-11.25c-0.74-1.07-1.93-2.52-0.84-3.72
			c1.12-1.24,2.62-0.05,3.75,0.56c8.07,4.37,14.67,10.42,19.57,18.16c5.42,8.56,8.41,17.85,7.06,28.13
			c-0.63,4.74-1.49,5.08-5.77,2.76c-24.54-13.34-51.07-6.03-65.24,18.06c-1.25,2.13-2.76,3.2-5.23,3.63
			c-17.85,3.1-31.62,16.45-33.97,34.31c-0.91,6.91-2.98,12.69-7.15,17.98c-0.23,0.29-0.41,0.63-0.61,0.95
			c-14.76,24.2-6.11,56.4,18.82,68.96c4.16,2.09,6.49,4.72,8.11,8.97c7.62,19.89,29.24,34.48,50.44,33.87
			c16.05-0.46,29.82-6.67,41.18-18.06c4.39-4.4,4.35-4.44,8.6,0.07c28.7,30.44,78.8,19.73,92.09-18.07c0.97-2.76,2.66-4.56,5.39-5.8
			C375.06,213.45,381.76,207.5,386.69,199.74z M258.48,215.35c-1.89,15.24-15.32,28.1-32.3,30.46c-15.15,2.1-28.48-1.77-38.91-13.65
			c-3.32-3.78-5.14-7.93-4.61-12.98c0.86-8.29,4.15-15.17,11.71-19.33c9.06-4.98,19.99-0.11,22.46,9.87
			c0.27,1.09,0.53,2.19,0.77,3.28c0.64,2.9,2.37,4.87,5.38,4.79c3.2-0.09,5.37-2.03,5.94-5.26c0.68-3.82-0.15-7.45-1.97-10.86
			c-10.71-20.05-36.5-21.03-49.5-1.88c-5.14,7.57-7.12,7.91-14.79,2.49c-11.59-8.19-16.09-19.62-15.11-33.47
			c0.34-4.74,2.37-8.91,5.06-12.74c2.57-3.67,3.47-3.73,6.47-0.36c9.55,10.74,21.44,14.02,35.26,11.11c2.08-0.44,4.11-1.16,5.81-2.5
			c2.35-1.86,3.78-4.29,2.32-7.2c-1.41-2.79-3.86-4.12-7.18-3.34c-4.02,0.95-8.06,1.25-12.24,1.22
			c-11.52-0.09-21.86-12.55-19.57-26.54c1.53-9.38,6.6-16.41,15.75-19.83c4.57-1.71,5.69-0.93,6.67,3.85
			c1.94,9.49,6.12,17.48,15.12,22.03c15.67,7.93,35.17-4.11,35.12-21.61c0-1.24-0.09-2.52-0.41-3.71c-0.68-2.52-2.31-4.24-5.03-4.29
			c-2.92-0.06-4.59,1.8-5.33,4.41c-0.51,1.79-0.52,3.72-1,5.52c-2.07,7.69-11.24,11.74-18.33,8.15c-3.23-1.64-5.13-4.13-5.56-7.86
			c-1.46-12.71,0.42-24.08,12.55-31.25c14.06-8.31,32.87-6.46,43.75,10.08c1.65,2.5,1.94,5.35,1.94,8.27
			c-0.01,10.62,0,21.24-0.01,31.87c0,10.5,0.03,20.99-0.03,31.49c-0.01,1.52,0.83,3.73-0.85,4.41c-1.53,0.62-2.28-1.57-3.27-2.58
			c-6.76-6.87-14.64-11.63-24.26-13.18c-3.15-0.51-6.24-0.34-9.09,1.3c-1.85,1.07-3.05,2.58-2.97,4.84
			c0.08,2.36,1.26,4.02,3.39,4.95c0.9,0.4,1.89,0.77,2.86,0.82c15.95,0.86,24.86,10.83,30.89,24.2
			C258.95,198.27,259.54,206.8,258.48,215.35z M362.43,204.79c-5.03,2.19-6.25,1.79-9.18-2.74c-6.52-10.04-15.02-16.62-27.73-15.96
			c-11.26,0.59-22.94,10.03-25.02,20.44c-0.55,2.72-0.83,5.52,0.67,8.03c1.21,2.02,3.01,3.48,5.53,3.17
			c2.52-0.31,3.88-2.07,4.56-4.41c0.1-0.36,0.17-0.73,0.24-1.1c2.59-13.74,16.11-18.71,26.82-9.84c10.6,8.79,11.22,22.88,1.42,32.41
			c-18.44,17.92-50.26,14.76-64.34-6.55c-6.15-9.3-5.84-19.77-3.84-30.09c2.23-11.51,8.6-20.65,18.19-27.44
			c3.83-2.71,8-4.43,12.86-4.56c5.53-0.16,8.71-2.87,8.38-6.54c-0.32-3.68-3.87-5.99-9.24-5.54c-10.43,0.88-18.92,5.94-26.49,12.82
			c-0.65,0.59-1.21,1.26-1.86,1.85c-0.62,0.56-1.11,1.6-2.12,1.18c-1.02-0.42-0.63-1.53-0.63-2.34
			c-0.03-11.12-0.02-22.25-0.02-33.37c0.02,0,0.04,0,0.06,0c0-10.25,0.12-20.5-0.05-30.74c-0.08-4.94,1.65-8.95,4.8-12.61
			c12.28-14.28,37.13-17.89,50.59,2.92c5,7.73,4.19,16,1.8,24.16c-1.26,4.29-7.5,6.97-12.49,6.3c-5.12-0.69-9.42-4.42-10.33-9.04
			c-0.31-1.59-0.41-3.23-0.72-4.82c-0.57-2.97-2.02-5.32-5.38-5.17c-3.36,0.15-5.12,2.42-5.54,5.59
			c-1.07,8.06,2.32,14.38,8.11,19.57c11.82,10.6,33.24,7.77,39.83-9.44c1.12-2.92,2.16-5.85,2.72-8.95
			c0.72-3.99,1.65-4.52,5.64-3.48c12.83,3.35,20.18,19.91,14.46,32.59c-5.21,11.54-13.88,15.64-28.51,13.46
			c-0.62-0.09-1.22-0.27-1.84-0.36c-3.88-0.6-6.78,0.99-7.71,4.22c-0.81,2.85,0.79,5.86,4.46,7.28c8.37,3.23,16.88,3.13,25.3,0.17
			c5.91-2.07,10.54-6.1,14.95-10.4c3.3-3.22,4.31-3.04,6.76,0.93C387.69,172.88,380.15,197.08,362.43,204.79z"/>
		<path class="st0" d="M391.88,289.57c-5.25-0.03-9.21,3.94-9.22,9.25c-0.01,5.11,4.2,9.25,9.35,9.2c5.18-0.05,9-4.1,8.95-9.51
			C400.91,293.37,397.08,289.6,391.88,289.57z"/>
		<path class="st0" d="M383.33,360.43c0,3.62,0,7.24,0,10.86c0,9.8,0,9.8,9.8,9.7c5.88-0.06,6.52-0.61,6.54-6.39
			c0.04-15.72,0.06-31.45-0.02-47.17c-0.05-9.85-0.6-10.27-10.47-9.94c-4.51,0.15-5.76,1.33-5.8,5.88
			c-0.06,8.73-0.02,17.47-0.02,26.21c-0.01,0-0.02,0-0.03,0C383.33,353.19,383.33,356.81,383.33,360.43z"/>
		<path class="st0" d="M472.82,338.86c-0.42-10.98-8.03-19.96-17.85-21.88c-7.96-1.55-15.41-0.22-21.84,5.14
			c-0.83,0.69-2.38,2.36-2.77,0.18c-1.01-5.74-5.22-4.83-8.97-4.77c-4.84,0.08-6.53,1.82-6.57,6.61
			c-0.07,8.49-0.02,16.99-0.02,25.48c-0.08,0-0.15,0-0.23,0c0,6.62-0.03,13.24,0.01,19.86c0.07,12.53-1.42,11.54,12.26,11.51
			c3.03-0.01,4.27-1.48,4.25-4.39c-0.03-4.75,0.02-9.49,0.04-14.24c0.02-6.37-0.16-12.75,0.09-19.11
			c0.31-7.88,6.79-13.59,14.72-13.35c7.4,0.23,10.9,4.54,10.9,13.46c0,8.87-0.01,17.74-0.01,26.6c0,11.46,0.28,11.67,11.83,11.05
			c2.93-0.16,4.39-1.35,4.38-4.32C472.99,364.08,473.3,351.46,472.82,338.86z"/>
		<path class="st0" d="M490.11,368.6c3.94,13.24,19.35,16.67,30.21,11.7c1.15-0.53,2.24-1.47,2.28-2.79
			c0.09-3.11,0.05-6.23-0.16-9.33c-0.1-1.5-1.35-2-2.76-1.85c-1.36,0.15-2.71,0.49-4.07,0.58c-7.03,0.47-9.61-1.91-9.67-8.99
			c-0.05-6.62-0.01-13.23-0.03-19.85c-0.01-6.81-0.02-6.81,6.61-6.8c1.5,0,3,0.03,4.49-0.02c4.4-0.14,5.41-1.18,5.52-5.67
			c0.03-1.12-0.03-2.25-0.01-3.37c0.04-3.12-1.63-4.58-4.61-4.66c-2.99-0.08-6-0.15-8.99-0.03c-2.23,0.09-3.18-0.63-3.07-2.98
			c0.15-3.24,0.03-6.49,0-9.73c-0.02-1.75-0.51-3.48-2.49-3.62c-4.37-0.32-8.99-0.44-12.77,1.81c-2.97,1.77-1.05,5.54-1.49,8.39
			c-0.06,0.37-0.05,0.75,0,1.12c0.44,3.69-1.08,5.34-4.88,5.01c-1.83-0.16-3.83-0.24-5.02,1.71c-3.09,5.05,0.17,11.71,6.03,11.97
			c2.97,0.13,3.93,1.4,3.88,4.15c-0.09,4.49-0.03,8.99-0.03,13.48c0.01,0,0.01,0,0.02,0c0,1.87,0,3.75,0,5.62
			C489.12,359.19,488.74,363.99,490.11,368.6z"/>
		<path class="st0" d="M115.53,289.58c-5.36-0.02-9.07,3.75-9.1,9.25c-0.02,5.13,3.89,9.22,8.79,9.19c5.11-0.03,9.11-3.91,9.16-8.9
			C124.43,293.66,120.67,289.61,115.53,289.58z"/>
		<path class="st0" d="M117.85,381c5.23-0.01,5.67-0.47,5.67-5.88c0.02-15.72,0.02-31.45-0.01-47.17
			c-0.02-10.63-0.09-10.67-10.59-10.47c-4.54,0.09-5.56,1-5.59,5.49c-0.06,8.73-0.02,17.47-0.02,26.2c-0.01,0-0.01,0-0.02,0
			c0,7.11-0.01,14.23,0,21.34C107.3,381.9,106.52,381.02,117.85,381z"/>
		<path class="st0" d="M253.73,289.63c-4.58,0.07-5.49,1-5.51,5.56c-0.05,7.99,0,15.99-0.05,23.99c-0.01,1.06,0.43,2.46-0.8,3.05
			c-1.07,0.51-1.75-0.67-2.52-1.22c-10.64-7.57-25.34-6.35-34.09,3.48c-9.36,10.51-12.58,22.86-8.48,36.56
			c4.24,14.16,15.5,22.04,29.66,21.26c5.23-0.29,9.57-2.6,13.57-5.74c1.88-1.48,3.36-1.95,3.64,1.24c0.22,2.37,1.79,3.11,3.9,3.14
			c2.12,0.03,4.25,0.06,6.37,0.04c5.2-0.04,5.71-0.55,5.71-5.9c0.02-13.24,0.01-26.48,0-39.73c0-11.62,0.04-23.24-0.01-34.85
			C265.08,289.42,266.7,289.42,253.73,289.63z M248.24,341.87c-0.22,2.35-0.04,4.74-0.04,7.12c0,0,0.01,0,0.01,0
			c0,1.62,0,3.25,0,4.87c0.01,10.16-5.54,15.33-15.75,14.54c-4.44-0.34-8.14-2.14-10.85-5.84c-4.8-6.55-5.14-18.87-0.61-25.63
			c4.29-6.4,13.82-8.95,20.69-5.4C245.83,333.67,248.73,336.67,248.24,341.87z"/>
		<path class="st0" d="M75.03,332.53c0.13,13.11,0.06,26.24,0.48,39.34c0.31,9.58-1.56,9.15,10.04,9.1c6.04-0.03,6.3-0.35,6.39-6.36
			c0.36-23.86-0.65-47.71-0.75-71.57c-0.05-11.99,0.78-10.98-11.27-11.1c-3.58-0.04-5.72,1.41-7.43,4.51
			c-7.12,12.9-14.41,25.71-21.67,38.53c-2.09,3.69-2.6,3.66-4.72-0.08c-7.14-12.6-14.34-25.18-21.34-37.86
			c-1.97-3.57-4.43-5.6-8.65-5.07c-1.11,0.14-2.25,0.02-3.37,0.02c-6.02,0.03-6.65,0.62-6.76,6.63c-0.44,23.85-0.87,47.71-0.7,71.57
			c0.09,11.85-0.95,10.77,11.04,10.77c4.86,0,5.24-0.43,5.3-5.44c0.19-15.61,0.36-31.22,0.56-46.84c0.02-1.34-0.33-2.75,0.73-4.46
			c0.57,0.6,0.98,0.89,1.21,1.29c5.82,10.19,11.62,20.39,17.44,30.59c1.66,2.91,3.01,6.5,7.05,6.44c3.85-0.06,5.08-3.61,6.68-6.38
			c5.68-9.84,11.3-19.72,16.99-29.55c0.43-0.75,0.69-2.2,2.04-1.69c0.93,0.36,0.65,1.52,0.68,2.36
			C75.06,329.03,75.02,330.78,75.03,332.53z"/>
		<path class="st0" d="M193.2,336.11c-3.45-20.69-24.61-23.78-37.23-15.55c-1.44,0.94-2.31,2.65-4.23,3.07
			c-1.09-1.67-0.31-4.3-2.41-5.26c-3.43-1.57-7.14-1.38-10.58-0.27c-3.01,0.97-2.96,3.95-2.97,6.65
			c-0.01,15.24-0.07,30.48-0.08,45.72c-0.01,10.62,0.02,10.62,10.46,10.52c5.64-0.06,6.27-0.56,6.34-6.21
			c0.12-10.62-0.03-21.24,0.19-31.85c0.15-7.26,6.1-12.48,13.67-12.46c7.26,0.02,10.89,3.87,11.26,11.97
			c0.07,1.62,0.06,3.25,0.06,4.87c0,7.5-0.07,14.99,0.01,22.49c0.12,12.35-1.9,11.2,12.01,11.2c3.35,0,4.22-1.92,4.21-4.85
			c-0.04-10.37-0.03-20.74,0.01-31.11C193.95,342.04,193.7,339.08,193.2,336.11z"/>
	</g>
</g>
</svg>
